<?xml version="1.0" encoding="UTF-8"?>
<svg version="1.1" viewBox="0 0 2048 1975" width="2552" height="2462" xmlns="http://www.w3.org/2000/svg">
<path transform="translate(0)" d="m0 0h2048v1975h-2048z" fill="#CA128C"/>
<path transform="translate(0)" d="m0 0h2048v1975h-2048zm520 186-29 3-27 5-24 6-27 9-26 11-22 11-20 12-19 13-13 10-13 11-8 7-15 14-11 12-12 14-15 20-10 15-10 17-12 23-11 25-10 30-7 28-5 30-2 22v49l3 30 7 36 8 27 8 22 12 27 12 22 12 19 10 14 11 14 11 13 14 15 10 10 8 7 14 12 19 14 20 13 16 9 21 11 27 11 24 8 11 3v2l-14 25-10 17-15 26-2 5 16 28 15 26 7 12-9 2-27 10-29 14-15 8-19 12-14 10-14 11-14 12-15 14-8 8-7 8-12 14-15 20-11 17-11 19-8 16-7 15-10 26-8 26-6 28-4 28-1 11v55l3 27 4 23 7 28 11 32 13 29 13 24 18 27 13 17 12 14 11 12 15 15 8 7 16 13 18 13 17 11 16 9 19 10 29 12 31 10 31 7 28 4 28 2h23l28-2 22-3 25-5 25-7 26-9 27-12 21-11 21-13 17-12 16-13 14-12 25-25 9-11 10-12 12-17 11-17 12-22 13-27 10-28 2-8 254 1 11 26 14 28 13 21 11 16 14 18 9 10 7 8 23 23 11 9 15 12 20 14 22 13 21 11 26 11 33 11 24 6 30 5 21 2h53l35-4 24-5 26-7 28-10 20-9 22-11 20-12 20-14 14-11 14-12 15-14 8-8 7-8 12-14 12-16 14-21 12-21 12-24 11-28 6-19 7-28 5-29 2-23v-51l-3-28-5-27-7-27-9-26-9-21-8-16-9-17-12-19-13-18-13-16-10-11-7-8-13-13-8-7-13-11-20-15-17-11-17-10-19-10-21-9-19-7-26-8 5-10 14-24 4-7-2-5-28-49 9-3 26-8 21-8 26-12 20-11 19-12 19-14 11-9 14-12 26-26 9-11 12-15 12-17 11-18 10-18 10-21 8-20 8-24 7-28 5-30 2-22v-50l-3-29-5-27-7-27-10-29-12-27-11-21-13-21-10-14-10-13-11-13-11-12-20-20-11-9-16-13-27-18-21-12-22-11-25-10-28-9-30-7-27-4-25-2h-36l-25 2-26 4-27 6-26 8-28 11-23 11-21 12-24 16-13 10-11 9-20 18-11 11-7 8-12 14-14 19-13 20-12 21-12 25-10 26-2 8h-258l-1-8-9-27-10-24-8-16-10-19-13-20-10-14-13-16-7-8-9-10-19-19-8-7-16-13-17-12-17-11-18-10-16-8-20-9-28-10-25-7-26-5-22-3-14-1z" fill="#C6B588"/>
<path transform="translate(1040)" d="m0 0h1008v1975h-1014v-1l25-2 27-5 21-6 17-6 16-7 16-8 17-10 17-12 11-9 10-9 12-11 7-8 11-13 13-18 12-20 12-25 9-24 6-22 4-21 2-17 1-16 2-4 18 12 19 11 19 10 26 11 33 11 24 6 30 5 21 2h53l35-4 24-5 26-7 28-10 20-9 22-11 20-12 20-14 14-11 14-12 15-14 7-7 7-8 12-14 12-16 14-21 12-21 12-24 11-28 6-19 7-28 5-29 2-23v-51l-3-28-5-27-7-27-9-26-9-21-8-16-9-17-12-19-13-18-13-16-10-11-7-8-12-12-8-7-13-11-20-15-17-11-17-10-19-10-21-9-19-7-26-8-1-2 16-28 7-12-2-5-28-49 2-2 25-7 30-11 26-12 20-11 19-12 19-14 11-9 14-12 25-25 9-11 12-15 12-17 11-18 10-18 10-21 8-20 8-24 7-28 5-30 2-22v-50l-3-29-5-27-7-27-10-29-12-27-11-21-13-21-10-14-10-13-11-13-11-12-19-19-11-9-16-13-27-18-21-12-22-11-25-10-28-9-30-7-27-4-25-2h-36l-25 2-26 4-27 6-26 8-28 11-23 11-21 12-15 10h-2l-3-29-5-26-7-24-8-21-12-25-13-21-10-14-11-13-11-12-12-12-11-9-17-13-19-12-23-12-25-10-23-7-31-6-26-2z" fill="#C6B588"/>
<path transform="translate(0,990)" d="m0 0h1l2 26 5 27 7 25 10 25 8 17 13 22 14 19 11 13 11 12 9 9 11 9 15 12 19 12 16 9 19 9 36 12 13 3 1 3-8 17-10 26-8 26-6 28-4 28-1 11v55l3 27 4 23 7 28 11 32 13 29 13 24 18 27 13 17 12 14 11 12 14 14 8 7 16 13 18 13 17 11 16 9 19 10 29 12 31 10 31 7 28 4 28 2h23l28-2 22-3 25-5 25-7 26-9 27-12 21-11 21-13 17-12 16-13 14-12 24-24 9-11 10-12 12-17 11-17 12-22 13-27 10-28 3-8h254l4 8 9 21 13 26 13 21 11 16 14 18 9 10 7 8 22 22 11 9 15 12 6 4-2 31-4 23-5 20-8 24-11 24-9 17-12 18-12 16-12 13-9 10-12 11-16 13-21 14-19 11-20 9-19 7-20 6-24 5-16 2-16 1h-1034z" fill="#C6B588"/>
<path transform="translate(859,673)" d="m0 0h357l8 13 90 156 14 24 16 28 14 24 16 28 15 26 5 8-1 5-165 286-11 19h-358l-14-24-15-26-14-24-75-130-16-28-14-24-15-26-14-24 1-6 45-78 14-24 13-23 14-24 16-28 14-24 45-78z" fill="#ACC8B4"/>
<path transform="translate(2047,991)" d="m0 0h1v984h-1014v-1l25-2 27-5 21-6 17-6 16-7 16-8 17-10 17-12 11-9 10-9 12-11 7-8 11-13 13-18 12-20 12-25 9-24 6-22 4-21 2-17 1-16 2-4 18 12 19 11 19 10 26 11 33 11 24 6 30 5 21 2h53l35-4 24-5 26-7 28-10 20-9 22-11 20-12 20-14 14-11 14-12 15-14 7-7 7-8 12-14 12-16 14-21 12-21 12-24 11-28 6-19 7-28 5-29 2-23v-51l-3-28-5-27-7-27-9-26-7-17v-2l21-8 21-10 20-12 14-10 14-11 13-12 15-15 9-11 10-13 11-17 10-18 9-19 9-25 7-28 4-26z" fill="#C6B588"/>
<path transform="translate(1015)" d="m0 0h25l26 2 31 6 26 8 24 10 23 12 21 14 13 10 15 13 17 17 9 11 11 14 11 17 9 16 10 21 9 25 6 22 5 30 1 12v10l-19 14-13 11-8 7-12 11-9 9-7 8-12 14-14 19-13 20-12 21-12 25-10 26-3 8h-258l-7-24-8-21-8-18-8-16-11-20-10-15-10-14-13-16-7-8-9-10-18-18-8-7-16-13-17-12-5-4 4-26 7-26 7-20 11-24 10-18 8-12 12-16 12-14 23-23 14-11 15-11 15-9 23-12 19-8 25-8 28-6 16-2z" fill="#C5D95E"/>
<path transform="translate(913,1525)" d="m0 0h254l4 8 9 21 13 26 13 21 11 16 14 18 9 10 7 8 22 22 11 9 15 12 6 4-2 31-4 23-5 20-8 24-11 24-9 17-12 18-12 16-12 13-9 10-12 11-16 13-21 14-19 11-20 9-19 7-20 6-24 5-16 2-16 1h-25l-25-2-23-4-26-7-26-10-19-9-14-8-15-10-12-9-11-9-13-12-11-11-18-22-14-21-13-24-11-26-8-26-5-26 27-18 16-12 14-12 12-11 19-19 9-11 10-12 12-17 11-17 12-22 13-27 10-28z" fill="#C5D95E"/>
<path transform="translate(203,709)" d="m0 0 2 3 8 16 10 19 12 19 10 14 11 14 11 13 14 15 9 9 8 7 14 12 19 14 20 13 16 9 21 11 27 11 24 8 13 4-8 14-10 18-14 24-10 17 2 6 14 24 15 26 6 10v2l-26 9-23 10-26 13-21 13-17 12-14 11-14 12-15 14-7 7-7 8-12 14-15 20-11 17-11 19-6 11-2 1-20-5-29-10-25-12-20-12-14-10-16-13-13-12-10-10-18-22-13-19-12-21-10-22-7-19-7-26-4-23-2-26v-22l2-26 4-23 6-23 7-20 9-20 11-21 15-22 11-14 12-13 18-18 11-9 15-11 19-12 25-13 20-8 17-5z" fill="#C4D95E"/>
<path transform="translate(1864,718)" d="m0 0 6 1 18 8 25 13 19 13 13 10 15 13 17 17 9 11 13 17 13 21 10 19 8 19 8 24 5 21 4 26 1 18v22l-2 26-4 23-7 26-8 22-13 27-11 18-12 17-11 13-9 10-17 17-11 9-16 12-21 13-17 9-24 10-7 1-8-16-10-19-12-19-13-18-13-16-10-11-7-8-12-12-8-7-13-11-20-15-17-11-17-10-19-10-21-9-19-7-26-8-1-2 16-28 7-12-2-5-28-49 2-2 25-7 30-11 26-12 20-11 19-12 19-14 11-9 14-12 25-25 9-11 12-15 12-17 11-18 10-18 10-21z" fill="#C5D95E"/>
<path transform="translate(1864,718)" d="m0 0 6 1 18 8 25 13 19 13 13 10 15 13 17 17 9 11 13 17 13 21 10 19 8 19 8 24 5 21 4 26 1 18v22l-2 26-4 23-7 26-8 22-13 27-11 18-12 17-11 13-9 10-17 17-11 9-16 12-21 13-17 9-24 10-7 1-2-4 2-10 9-35 6-27 6-33 5-35 3-29 3-45v-63l-3-46-4-36-4-27-6-34-8-36-11-39-1-4 10-22z" fill="#B0A532"/>
<path transform="translate(185,715)" d="m0 0h2l-2 9-11 36-12 48-8 42-5 35-3 26-3 42v82l3 43 5 41 6 36 9 43 10 37v3l-10-3-22-11-21-13-16-12-11-9-13-12-10-10-18-22-13-19-12-21-10-22-7-19-7-26-4-23-2-26v-22l2-26 4-23 6-23 7-20 9-20 11-21 15-22 11-14 12-13 18-18 11-9 15-11 19-12 25-13z" fill="#B0A532"/>
<path transform="translate(1015)" d="m0 0h25l26 2 31 6 26 8 24 10 23 12 21 14 13 10 15 13 17 17 9 11 11 14 11 17 9 16 7 15-8-1-24-7-40-10-47-9-36-5-41-4-39-2h-64l-39 2-41 4-47 7-35 7-37 9-8 2 1-5 9-17 10-15 12-16 12-14 23-23 14-11 15-11 15-9 23-12 19-8 25-8 28-6 16-2z" fill="#B0A532"/>
<path transform="translate(1264,1828)" d="m0 0h3l-2 6-12 19-9 12-8 10-9 10-11 12-10 9-12 10-18 13-15 9-12 7-20 9-19 7-20 6-24 5-16 2-16 1h-25l-25-2-23-4-26-7-26-10-19-9-14-8-15-10-12-9-11-9-13-12-11-11-18-22-14-21-5-10 10 2 28 7 34 7 44 7 34 4 45 3h89l45-3 48-6 29-5 34-7 36-9z" fill="#B0A532"/>
<path transform="translate(1010,1416)" d="m0 0h22l26 2 27 5 25 7 21 8 17 8 1 1 4 25 8 32 6 18v3h-254l4-16 6-29 4-32 1-16 18-6 21-5 18-3z" fill="#7D2990"/>
<path transform="translate(906,464)" d="m0 0h257l-7 26-5 24-3 18-15 7-33 11-29 6-17 2-15 1h-22l-26-2-27-5-25-7-21-8-1-1-4-35-5-25z" fill="#7D2990"/>
<path transform="translate(452,920)" d="m0 0 25 5 28 4 10 1 39 1 2 3 2 14 1 14v33l-2 22-4 22-2 6-22 1-34 4-29 6-15 4-5-1-14-24-16-28-7-12 2-5 16-28 15-26 9-15z" fill="#7D288F"/>
<path transform="translate(1158,673)" d="m0 0h58l8 13 90 156 14 24 16 28 9 15v2l-6-2-22-12-24-16-13-10-11-9-10-9-8-7-16-16-7-8-14-17-13-18-12-19-12-22-10-21-10-26-7-23z" fill="#C4CFB4"/>
<path transform="translate(907,1291)" d="m0 0h253l-2 10-6 27-3 3-24 7-29 6-24 3-13 1h-44l-29-3-23-4-22-5-22-7-3-7-9-29z" fill="#7D2990"/>
<path transform="translate(1016,618)" d="m0 0h41l31 3 23 4 25 6 13 4 2 6 6 29v3h-257l7-26 2-6 12-5 32-9 26-5 23-3z" fill="#7D2990"/>
<path transform="translate(1340,1069)" d="m0 0h3l-1 4-14 25-10 17-90 156-11 19h-56l3-12 10-26 12-26 13-23 14-21 13-17 9-11 12-13 23-23 11-9 15-12 16-11 21-13z" fill="#C4CFB4"/>
<path transform="translate(1602,940)" d="m0 0 4 1 14 25 14 24 2 5-16 28-8 13-8-1-31-6-27-3-53-1-2-7-2-21v-34l1-13 1-1h47l32-3 28-5z" fill="#7D288F"/>
<path transform="translate(1301,1701)" d="m0 0 7 4 15 10 18 10 17 9 26 11 33 11 14 4-3 3-16 8-15 8-11 5-10 4-10 5-13 5-12 5-26 10-37 12-10 2 9-20 6-15 7-21 6-27 3-23 1-16z" fill="#DBE9B1"/>
<path transform="translate(750,1099)" d="m0 0 12 7 14 10 13 10 13 11 12 11 19 19 9 11 10 12 13 18 12 19 10 18 13 27 6 16v2h-47l-14-24-15-26-14-24-60-104-6-10z" fill="#C4CFB4"/>
<path transform="translate(859,673)" d="m0 0h41l-3 11-11 27-10 21-12 21-14 21-12 16-9 11-11 12-12 13-12 11-14 12-13 10-17 12-6 3 2-5 16-28 60-104 14-24 16-28z" fill="#C4CFB4"/>
<path transform="translate(739,877)" d="m0 0h2l-2 6-15 26-14 24-16 28-11 19 1 6 14 24 15 26 14 24 20 35-1 2-22-12-19-9-23-9-3-8-5-30-2-23v-47l3-29 4-22 1-2 23-10 16-8z" fill="#7F288F"/>
<path transform="translate(1283,166)" d="m0 0 7 1 21 7 7 3 20 7 12 5 7 3 17 7 16 8 10 4 13 7-1 2-27 9-23 10-17 8-21 12-15 10h-2l-3-29-5-26-7-24-8-21z" fill="#DBE9B1"/>
<path transform="translate(744,1739)" d="m0 0 2 1 5 25 8 26 11 26 7 14-10-2-16-5-28-9-10-4-12-4-12-5-13-5-8-4-15-6-8-4-3-1v-2l25-7 26-9 27-12 21-11z" fill="#DBE9B1"/>
<path transform="translate(774,158)" d="m0 0 2 1-10 24-7 22-5 21-3 19-2 2-13-8-16-9-16-8-20-9-30-11 12-6 15-6 12-5 15-6 48-16 13-4z" fill="#DBE9B1"/>
<path transform="translate(1356,914)" d="m0 0 5 1 21 9 16 6 1 1 3 30v44l-3 31-2 9-26 10-21 10h-3l2-6 10-17 30-52 4-7-1-4-14-25-10-17-12-21z" fill="#7F288F"/>
<path transform="translate(177,1239)" d="m0 0 11 3 19 6 13 3 1 3-8 17-10 26-3 9h-2l-3-10-3-8-4-11-11-33z" fill="#DBE9B1"/>
<path transform="translate(195,692)" d="m0 0h2l6 15-1 4-13 4h-2l3-9 3-10z" fill="#DBE8B1"/>
</svg>
